<svg width="88" height="32" viewBox="0 0 88 32" fill="none" xmlns="http://www.w3.org/2000/svg">
<rect width="88" height="32" rx="16" fill="#FD3A69" fill-opacity="0.2"/>
<path d="M29.8428 21V13.4272H25.812V21H23.8887V11.8403H31.7534V21H29.8428ZM33.3467 21V14.0112H35.1621V18.4355H35.2129L38.1074 14.0112H39.9229V21H38.1074V16.5249H38.0566L35.1621 21H33.3467ZM47.0703 22.8091V21H41.3066V14.0112H43.1538V19.5908H45.8579V14.0112H47.7051V19.5908H48.7588V22.8091H47.0703ZM55.3984 22.8091V21H49.6348V14.0112H51.4819V19.5908H54.186V14.0112H56.0332V19.5908H57.0869V22.8091H55.3984ZM60.6353 19.7305C61.0711 19.7305 61.4351 19.6099 61.7271 19.3687C62.0275 19.1232 62.1777 18.8122 62.1777 18.4355V17.9214L60.7114 18.0229C59.9201 18.0737 59.5244 18.3636 59.5244 18.8926C59.5244 19.1507 59.626 19.3538 59.8291 19.502C60.028 19.6543 60.2967 19.7305 60.6353 19.7305ZM60.0322 21.0825C59.3509 21.0825 58.7902 20.89 58.3501 20.5049C57.9015 20.1113 57.6772 19.6056 57.6772 18.9878C57.6772 18.3573 57.9142 17.8621 58.3882 17.5024C58.8537 17.1512 59.535 16.9481 60.4321 16.8931L62.1777 16.7852V16.3218C62.1777 15.9875 62.0698 15.7293 61.854 15.5474C61.6382 15.3696 61.3377 15.2808 60.9526 15.2808C60.6226 15.2808 60.3454 15.3612 60.1211 15.522C59.901 15.6785 59.7677 15.8859 59.7212 16.144H58.0264C58.0518 15.4754 58.3395 14.9338 58.8896 14.519C59.444 14.1001 60.1571 13.8906 61.0288 13.8906C61.9259 13.8906 62.6453 14.1022 63.187 14.5254C63.7287 14.9486 63.9995 15.5093 63.9995 16.2075V21H62.2095V19.9209H62.1714C61.9852 20.2806 61.6932 20.5662 61.2954 20.7778C60.9103 20.981 60.4893 21.0825 60.0322 21.0825Z" fill="#FD3A69"/>
</svg>
