<svg width="88" height="32" viewBox="0 0 88 32" fill="none" xmlns="http://www.w3.org/2000/svg">
<rect x="0.5" y="0.5" width="87" height="31" rx="15.5" stroke="#FD3A69" stroke-opacity="0.4"/>
<path d="M25.1157 21V16.8296H20.0884V21H18.9458V11.8403H20.0884V15.8013H25.1157V11.8403H26.2583V21H25.1157ZM30.2573 20.105C30.8159 20.105 31.2793 19.9442 31.6475 19.6226C32.0114 19.2967 32.1934 18.8883 32.1934 18.3975V17.8452L30.4033 17.9595C29.3623 18.0229 28.8418 18.389 28.8418 19.0576C28.8418 19.375 28.9709 19.6289 29.229 19.8193C29.4829 20.0098 29.8257 20.105 30.2573 20.105ZM30.0225 21.0635C29.3285 21.0635 28.7699 20.8794 28.3467 20.5112C27.9235 20.1431 27.7119 19.6564 27.7119 19.0513C27.7119 18.4631 27.932 18.0018 28.3721 17.6675C28.8122 17.3289 29.4469 17.1343 30.2764 17.0835L32.1934 16.9692V16.3979C32.1934 15.9748 32.0579 15.6489 31.7871 15.4204C31.5163 15.1919 31.1291 15.0776 30.6255 15.0776C30.2277 15.0776 29.8934 15.1729 29.6226 15.3633C29.3475 15.5537 29.1761 15.8097 29.1084 16.1313H28.0483C28.0653 15.5558 28.3213 15.0713 28.8164 14.6777C29.3115 14.2884 29.9188 14.0938 30.6382 14.0938C31.4465 14.0938 32.0918 14.2926 32.5742 14.6904C33.0566 15.0924 33.2979 15.6299 33.2979 16.3027V21H32.2505V19.813H32.2251C32.0304 20.1938 31.7342 20.4964 31.3364 20.7207C30.9386 20.9492 30.5007 21.0635 30.0225 21.0635ZM39.3599 15.0713H35.9448V21H34.853V14.1572H40.4517V21H39.3599V15.0713ZM42.0767 21V14.1572H43.1685V19.2925H43.2192L46.7422 14.1572H47.834V21H46.7422V15.8647H46.6914L43.1685 21H42.0767ZM54.4419 15.0713H52.2202V21H51.1284V15.0713H48.9067V14.1572H54.4419V15.0713ZM61.0688 21H59.6406L56.6509 17.6929H56.6001V21H55.5083V14.1572H56.6001V17.1978H56.6509L59.6089 14.1572H60.98L57.7617 17.4009L61.0688 21ZM62.0464 21V14.1572H63.1382V19.2925H63.189L66.7119 14.1572H67.8037V21H66.7119V15.8647H66.6611L63.1382 21H62.0464Z" fill="#FD3A69" fill-opacity="0.4"/>
</svg>
