<svg width="88" height="32" viewBox="0 0 88 32" fill="none" xmlns="http://www.w3.org/2000/svg">
<rect x="0.5" y="0.5" width="87" height="31" rx="15.5" stroke="#FD3A69" stroke-opacity="0.4"/>
<path d="M31.9346 21H30.3667L26.1392 16.5503H26.0884V21H24.9458V11.8403H26.0884V16.0615H26.1392L30.0747 11.8403H31.5093L27.3452 16.2202L31.9346 21ZM35.356 21.0635C34.3953 21.0635 33.6294 20.7482 33.0581 20.1177C32.4868 19.4871 32.2012 18.6408 32.2012 17.5786C32.2012 16.5164 32.4868 15.6701 33.0581 15.0396C33.6294 14.409 34.3953 14.0938 35.356 14.0938C36.3166 14.0938 37.0825 14.409 37.6538 15.0396C38.2251 15.6701 38.5107 16.5164 38.5107 17.5786C38.5107 18.6408 38.2251 19.4871 37.6538 20.1177C37.0825 20.7482 36.3166 21.0635 35.356 21.0635ZM35.356 20.0796C35.995 20.0796 36.4922 19.8595 36.8477 19.4194C37.2074 18.9751 37.3872 18.3615 37.3872 17.5786C37.3872 16.7915 37.2074 16.1779 36.8477 15.7378C36.4922 15.2977 35.995 15.0776 35.356 15.0776C34.717 15.0776 34.2197 15.2977 33.8643 15.7378C33.5046 16.1821 33.3247 16.7957 33.3247 17.5786C33.3247 18.3615 33.5046 18.9751 33.8643 19.4194C34.224 19.8595 34.7212 20.0796 35.356 20.0796ZM39.7993 21V14.1572H41.126L43.6016 19.5337H43.6523L46.1343 14.1572H47.4102V21H46.312V16.1313H46.2612L44.0269 20.8096H43.1763L40.9419 16.1313H40.8911V21H39.7993ZM51.9551 21.1206C50.9056 21.1206 50.1121 20.7715 49.5747 20.0732C49.0373 19.375 48.7686 18.3467 48.7686 16.9883C48.7686 15.0628 49.0436 13.679 49.5938 12.8369C50.1523 11.9779 51.0939 11.5229 52.4185 11.4722L52.9072 11.4531C53.7028 11.415 54.2974 11.2923 54.6909 11.085V12.0562C54.4328 12.2889 53.8551 12.4243 52.958 12.4624L52.4629 12.4814C51.5361 12.5195 50.8739 12.7713 50.4761 13.2368C50.1121 13.6685 49.8561 14.4302 49.708 15.522H49.7588C50.2158 14.7052 51.0029 14.2969 52.1201 14.2969C53.0426 14.2969 53.7769 14.5994 54.3228 15.2046C54.8687 15.8055 55.1416 16.618 55.1416 17.6421C55.1416 18.717 54.8581 19.5654 54.291 20.1875C53.7197 20.8096 52.9411 21.1206 51.9551 21.1206ZM51.9551 20.1367C52.611 20.1367 53.1167 19.9188 53.4722 19.4829C53.8319 19.047 54.0117 18.4334 54.0117 17.6421C54.0117 16.8888 53.8319 16.3049 53.4722 15.8901C53.1167 15.4797 52.611 15.2744 51.9551 15.2744C51.2992 15.2744 50.7935 15.4797 50.438 15.8901C50.0783 16.3049 49.8984 16.8888 49.8984 17.6421C49.8984 18.4334 50.0783 19.047 50.438 19.4829C50.7935 19.9188 51.2992 20.1367 51.9551 20.1367ZM59.2485 21.0635C58.2879 21.0635 57.522 20.7482 56.9507 20.1177C56.3794 19.4871 56.0938 18.6408 56.0938 17.5786C56.0938 16.5164 56.3794 15.6701 56.9507 15.0396C57.522 14.409 58.2879 14.0938 59.2485 14.0938C60.2091 14.0938 60.9751 14.409 61.5464 15.0396C62.1177 15.6701 62.4033 16.5164 62.4033 17.5786C62.4033 18.6408 62.1177 19.4871 61.5464 20.1177C60.9751 20.7482 60.2091 21.0635 59.2485 21.0635ZM59.2485 20.0796C59.8875 20.0796 60.3848 19.8595 60.7402 19.4194C61.0999 18.9751 61.2798 18.3615 61.2798 17.5786C61.2798 16.7915 61.0999 16.1779 60.7402 15.7378C60.3848 15.2977 59.8875 15.0776 59.2485 15.0776C58.6095 15.0776 58.1123 15.2977 57.7568 15.7378C57.3971 16.1821 57.2173 16.7957 57.2173 17.5786C57.2173 18.3615 57.3971 18.9751 57.7568 19.4194C58.1165 19.8595 58.6138 20.0796 59.2485 20.0796Z" fill="#FD3A69" fill-opacity="0.4"/>
</svg>
