<svg width="88" height="32" viewBox="0 0 88 32" fill="none" xmlns="http://www.w3.org/2000/svg">
<rect x="0.5" y="0.5" width="87" height="31" rx="15.5" stroke="#FD3A69" stroke-opacity="0.4"/>
<path d="M20.9199 17.6294C20.8522 18.7212 20.6385 19.485 20.2788 19.9209V19.9717H24.7222V12.8687H21.2183L20.9199 17.6294ZM19.2441 22.8091H18.1841V19.9717H18.8633C19.4473 19.6628 19.7752 18.8735 19.8472 17.604L20.1963 11.8403H25.8647V19.9717H27.0073V22.8091H25.9473V21H19.2441V22.8091ZM30.9302 15.0649C30.3927 15.0649 29.9484 15.2427 29.5972 15.5981C29.2417 15.9536 29.0449 16.4212 29.0068 17.001H32.771C32.7583 16.4212 32.5827 15.9536 32.2441 15.5981C31.9098 15.2427 31.4718 15.0649 30.9302 15.0649ZM33.8374 19.0449C33.7443 19.6331 33.4312 20.1156 32.8979 20.4922C32.3647 20.873 31.7321 21.0635 31 21.0635C30.0394 21.0635 29.2756 20.7524 28.7085 20.1304C28.1457 19.5083 27.8643 18.6662 27.8643 17.604C27.8643 16.5418 28.1457 15.6912 28.7085 15.0522C29.2713 14.4132 30.0182 14.0938 30.9492 14.0938C31.8633 14.0938 32.5869 14.3942 33.1201 14.9951C33.6533 15.6003 33.9199 16.4191 33.9199 17.4517V17.8833H29.0068V17.9468C29.0068 18.5985 29.1909 19.119 29.5591 19.5083C29.9272 19.8976 30.416 20.0923 31.0254 20.0923C31.4528 20.0923 31.8231 19.9971 32.1362 19.8066C32.4451 19.6204 32.6483 19.3665 32.7456 19.0449H33.8374ZM39.7471 16.252C39.6497 15.9007 39.4572 15.6214 39.1694 15.4141C38.8563 15.1898 38.467 15.0776 38.0015 15.0776C37.4006 15.0776 36.9181 15.3062 36.5542 15.7632C36.1818 16.2202 35.9956 16.8254 35.9956 17.5786C35.9956 18.3488 36.1839 18.9603 36.5605 19.4131C36.9245 19.8574 37.409 20.0796 38.0142 20.0796C38.9494 20.0796 39.5312 19.6945 39.7598 18.9243H40.8579C40.7437 19.5633 40.4305 20.0775 39.9185 20.4668C39.3979 20.8646 38.7611 21.0635 38.0078 21.0635C37.0599 21.0635 36.3024 20.7524 35.7354 20.1304C35.1598 19.4956 34.8721 18.645 34.8721 17.5786C34.8721 16.5291 35.1577 15.6849 35.729 15.0459C36.3003 14.4111 37.0557 14.0938 37.9951 14.0938C38.7738 14.0938 39.4276 14.3096 39.9565 14.7412C40.4432 15.139 40.7394 15.6426 40.8452 16.252H39.7471ZM44.7808 15.0649C44.2433 15.0649 43.799 15.2427 43.4478 15.5981C43.0923 15.9536 42.8955 16.4212 42.8574 17.001H46.6216C46.6089 16.4212 46.4333 15.9536 46.0947 15.5981C45.7604 15.2427 45.3224 15.0649 44.7808 15.0649ZM47.688 19.0449C47.5949 19.6331 47.2817 20.1156 46.7485 20.4922C46.2153 20.873 45.5827 21.0635 44.8506 21.0635C43.89 21.0635 43.1261 20.7524 42.5591 20.1304C41.9963 19.5083 41.7148 18.6662 41.7148 17.604C41.7148 16.5418 41.9963 15.6912 42.5591 15.0522C43.1219 14.4132 43.8688 14.0938 44.7998 14.0938C45.7139 14.0938 46.4375 14.3942 46.9707 14.9951C47.5039 15.6003 47.7705 16.4191 47.7705 17.4517V17.8833H42.8574V17.9468C42.8574 18.5985 43.0415 19.119 43.4097 19.5083C43.7778 19.8976 44.2666 20.0923 44.876 20.0923C45.3034 20.0923 45.6737 19.9971 45.9868 19.8066C46.2957 19.6204 46.4989 19.3665 46.5962 19.0449H47.688ZM52.3472 14.0938C53.2231 14.0938 53.9299 14.4132 54.4673 15.0522C55.009 15.6955 55.2798 16.5376 55.2798 17.5786C55.2798 18.6196 55.0111 19.4618 54.4736 20.105C53.9362 20.744 53.2358 21.0635 52.3726 21.0635C51.3696 21.0635 50.6418 20.672 50.189 19.8892H50.1636V23.2852H49.0591V14.1572H50.1064V15.2681H50.1318C50.3307 14.9126 50.6312 14.627 51.0332 14.4111C51.4352 14.1995 51.8732 14.0938 52.3472 14.0938ZM52.144 20.0796C52.7492 20.0796 53.2337 19.8532 53.5977 19.4004C53.9658 18.9434 54.1499 18.3361 54.1499 17.5786C54.1499 16.8254 53.9658 16.2202 53.5977 15.7632C53.2337 15.3062 52.7492 15.0776 52.144 15.0776C51.5558 15.0776 51.0776 15.3083 50.7095 15.7695C50.3413 16.2308 50.1572 16.8338 50.1572 17.5786C50.1572 18.3234 50.3413 18.9264 50.7095 19.3877C51.0734 19.849 51.5516 20.0796 52.144 20.0796ZM61.4243 15.0713H59.2026V21H58.1108V15.0713H55.8892V14.1572H61.4243V15.0713ZM68.3052 14.1572H69.397V21H68.3052V14.1572ZM63.5825 17.2676V20.0859H64.8711C65.3197 20.0859 65.6794 19.9569 65.9502 19.6987C66.2168 19.4448 66.3501 19.1042 66.3501 18.6768C66.3501 18.2493 66.2147 17.9066 65.9438 17.6484C65.6772 17.3945 65.3197 17.2676 64.8711 17.2676H63.5825ZM62.4907 14.1572H63.5825V16.3535H64.8711C65.654 16.3535 66.2782 16.563 66.7437 16.9819C67.2091 17.4009 67.4419 17.9658 67.4419 18.6768C67.4419 19.3877 67.2091 19.9526 66.7437 20.3716C66.2782 20.7905 65.654 21 64.8711 21H62.4907V14.1572Z" fill="#FD3A69" fill-opacity="0.4"/>
</svg>
